<?xml version="1.0" encoding="UTF-8" standalone="no"?>
<!-- Created with Inkscape (http://www.inkscape.org/) -->

<svg
   xmlns:dc="http://purl.org/dc/elements/1.1/"
   xmlns:cc="http://creativecommons.org/ns#"
   xmlns:rdf="http://www.w3.org/1999/02/22-rdf-syntax-ns#"
   xmlns:svg="http://www.w3.org/2000/svg"
   xmlns="http://www.w3.org/2000/svg"
   version="1.1"
   width="169.94498"
   height="100"
   id="svg2">
  <defs
     id="defs4">
    <clipPath
       id="clipPath4161">
      <g
         id="g4163">
        <path
           d="m -2742.3439,-855.47806 5.0297,-8.42134 -3.852,-0.55602 2.107,-4.71679 3.4273,1.86174 3.0562,-6.97523 28.3485,9.92177 -12.2,25.18321 z"
           id="path4165"
           style="fill:#ececec;fill-opacity:1;stroke:none" />
        <path
           d="m -2747.8766,-858.59724 3.8542,-7.40963 -3.4914,-1.0969 2.1069,-4.53649 3.0668,2.22232 3.3317,-7.18123 28.4158,9.91567 -11.5794,24.04075 z"
           id="path4167"
           style="fill:#ff642e;fill-opacity:1;stroke:none" />
      </g>
    </clipPath>
  </defs>
  <metadata
     id="metadata7">
    <rdf:RDF>
      <cc:Work
         rdf:about="">
        <dc:format>image/svg+xml</dc:format>
        <dc:type
           rdf:resource="http://purl.org/dc/dcmitype/StillImage" />
        <dc:title></dc:title>
      </cc:Work>
    </rdf:RDF>
  </metadata>
  <g
     id="layer16"
     style="display:inline">
    <path
       d="m 146.56706,1.9617504 0.63395,76.6882736 c -0.43213,0.614717 -123.508487,-0.125997 -124.059531,0 L 23.29757,1.8939764 c 0.119251,0.3022951 123.26949,0.067774 123.26949,0.067774 z"
       id="path6384"
       style="fill:#f9f9f9;fill-opacity:1;fill-rule:evenodd;stroke:#4d4d4d;stroke-width:3.78795195;stroke-linejoin:round;stroke-miterlimit:4;display:inline" />
    <path
       d="m 0.0041,94.11414 21.392998,-14.037719 127.469202,0 21.0037,14.074459 c 0.4166,3.17629 -0.9856,4.0154 -2.1634,4.37619 l -165.7368,0 C -0.756,97.38852 0.3638,96.31803 0.0041,94.11414 z"
       id="path6372"
       style="fill:#e5e5e5;fill-opacity:1;fill-rule:evenodd;stroke:none;display:inline" />
    <path
       d="M 0.6546,94.11566 0,94.51757 c 0.3597,2.20392 -0.7506,2.87392 1.9752,4.01251 l 165.7331,0 c 1.1777,-0.36076 2.5755,-0.83618 2.1589,-4.01251 l -0.6431,-0.40191 z"
       id="path6374"
       style="opacity:0.1017699;fill:#777777;fill-opacity:1;fill-rule:evenodd;stroke:none;display:inline" />
    <path
       d="m 0.2986,97.07162 c 0.2408,0.56504 0.7194,1.05861 1.6766,1.45846 l 165.7331,0 c 0.5643,-0.17289 1.1776,-0.65838 1.6192,-1.45846 l -169.0289,0 z"
       id="path6376"
       style="opacity:0.05309735;fill:#1a1a1a;fill-opacity:1;fill-rule:evenodd;stroke:none;display:inline" />
    <path
       d="M 13.9059,90.47643 23.627697,82.837731 147.2353,82.490501 159.0405,90.8236 z"
       id="path6378"
       style="fill:#b3b3b3;stroke:none;display:inline" />
    <path
       d="M 0.2986,100 C 0.5394,99.43496 1.018,98.94136 1.9752,98.54154 l 165.7331,0 c 0.5643,0.17286 1.1776,0.6584 1.6192,1.45846 L 0.2986,100 z"
       id="path6380"
       style="opacity:0.37610623;fill:#1a1a1a;fill-opacity:1;fill-rule:evenodd;stroke:none;display:inline" />
    <path
       d="m 70.785697,94.11586 c 0.3908,0.49384 -0.069,0.98764 2.1245,1.48138 l 32.165803,0 c 1.0823,-0.23093 2.0412,-0.92118 2.2164,-1.48138 z"
       id="path6382"
       style="fill:#9c9c9c;fill-opacity:1;stroke:none;display:inline" />
  </g>
  <g
     id="layer15"
     style="display:inline">
    <path
       d="m 0.0041,94.11414 21.392998,-14.037719 127.469202,0 21.0037,14.074459 c 0.4166,3.17629 -0.9856,4.0154 -2.1634,4.37619 l -165.7368,0 C -0.756,97.38852 0.3638,96.31803 0.0041,94.11414 z"
       id="path6306"
       style="fill:#e5e5e5;fill-opacity:1;fill-rule:evenodd;stroke:none;display:inline" />
    <path
       d="M 0.6546,94.11566 0,94.51757 c 0.3597,2.20392 -0.7506,2.87392 1.9752,4.01251 l 165.7331,0 c 1.1777,-0.36076 2.5755,-0.83618 2.1589,-4.01251 l -0.6431,-0.40191 z"
       id="path6308"
       style="opacity:0.1017699;fill:#777777;fill-opacity:1;fill-rule:evenodd;stroke:none;display:inline" />
    <path
       d="m 0.2986,97.07162 c 0.2408,0.56504 0.7194,1.05861 1.6766,1.45846 l 165.7331,0 c 0.5643,-0.17289 1.1776,-0.65838 1.6192,-1.45846 l -169.0289,0 z"
       id="path6310"
       style="opacity:0.05309735;fill:#1a1a1a;fill-opacity:1;fill-rule:evenodd;stroke:none;display:inline" />
    <path
       d="M 13.9059,90.47643 23.627697,82.837731 147.2353,82.490501 159.0405,90.8236 z"
       id="path6312"
       style="fill:#b3b3b3;stroke:none;display:inline" />
    <path
       d="M 0.2986,100 C 0.5394,99.43496 1.018,98.94136 1.9752,98.54154 l 165.7331,0 c 0.5643,0.17286 1.1776,0.6584 1.6192,1.45846 L 0.2986,100 z"
       id="path6314"
       style="opacity:0.37610623;fill:#1a1a1a;fill-opacity:1;fill-rule:evenodd;stroke:none;display:inline" />
    <path
       d="m 70.785697,94.11586 c 0.3908,0.49384 -0.069,0.98764 2.1245,1.48138 l 32.165803,0 c 1.0823,-0.23093 2.0412,-0.92118 2.2164,-1.48138 z"
       id="path6316"
       style="fill:#9c9c9c;fill-opacity:1;stroke:none;display:inline" />
    <path
       d="m 160.5769,23.87158 -13.366,54.57713 c -0.11327,-0.36548 -124.068502,0 -124.068502,0 L 9.2985,23.50391 c 72.294477,0.164168 73.353617,-0.0116 151.2784,0.36767 z"
       id="path6318"
       style="fill:#f9f9f9;fill-opacity:1;fill-rule:evenodd;stroke:#4d4d4d;stroke-width:3.78979039;stroke-linejoin:round;stroke-miterlimit:4;display:inline" />
  </g>
  <g
     id="layer14"
     style="display:inline">
    <path
       d="m 0.0041,94.11414 21.392998,-14.037719 127.469202,0 21.0037,14.074459 c 0.4166,3.17629 -0.9856,4.0154 -2.1634,4.37619 l -165.7368,0 C -0.756,97.38852 0.3638,96.31803 0.0041,94.11414 z"
       id="path6240"
       style="fill:#e5e5e5;fill-opacity:1;fill-rule:evenodd;stroke:none;display:inline" />
    <path
       d="M 0.6546,94.11566 0,94.51757 c 0.3597,2.20392 -0.7506,2.87392 1.9752,4.01251 l 165.7331,0 c 1.1777,-0.36076 2.5755,-0.83618 2.1589,-4.01251 l -0.6431,-0.40191 z"
       id="path6242"
       style="opacity:0.1017699;fill:#777777;fill-opacity:1;fill-rule:evenodd;stroke:none;display:inline" />
    <path
       d="m 0.2986,97.07162 c 0.2408,0.56504 0.7194,1.05861 1.6766,1.45846 l 165.7331,0 c 0.5643,-0.17289 1.1776,-0.65838 1.6192,-1.45846 l -169.0289,0 z"
       id="path6244"
       style="opacity:0.05309735;fill:#1a1a1a;fill-opacity:1;fill-rule:evenodd;stroke:none;display:inline" />
    <path
       d="M 13.9059,90.47643 23.627698,82.837731 147.2353,82.490501 159.0405,90.8236 z"
       id="path6246"
       style="fill:#b3b3b3;stroke:none;display:inline" />
    <path
       d="M 0.2986,100 C 0.5394,99.43496 1.018,98.94136 1.9752,98.54154 l 165.7331,0 c 0.5643,0.17286 1.1776,0.6584 1.6192,1.45846 L 0.2986,100 z"
       id="path6248"
       style="opacity:0.37610623;fill:#1a1a1a;fill-opacity:1;fill-rule:evenodd;stroke:none;display:inline" />
    <path
       d="m 70.785697,94.11586 c 0.3908,0.49384 -0.069,0.98764 2.1245,1.48138 l 32.165803,0 c 1.0823,-0.23093 2.0412,-0.92118 2.2164,-1.48138 z"
       id="path6250"
       style="fill:#9c9c9c;fill-opacity:1;stroke:none;display:inline" />
    <path
       d="m 164.5769,49.87158 -17.366,28.57713 c -0.11327,-0.36548 -124.068502,0 -124.068502,0 L 5.2985,49.50391 c 0.6270093,0.05658 159.2784,0.36767 159.2784,0.36767 z"
       id="path6252"
       style="fill:#f9f9f9;fill-opacity:1;fill-rule:evenodd;stroke:#4d4d4d;stroke-width:3.78979039;stroke-linejoin:round;stroke-miterlimit:4;display:inline" />
  </g>
  <g
     id="layer13"
     style="display:inline">
    <path
       d="m 166.5769,69.87158 -19.366,8.57713 -124.068502,0 L 3.2985,69.50391 c 0.9079391,0.06846 163.2784,0.36767 163.2784,0.36767 z"
       id="path6186"
       style="fill:#f9f9f9;fill-opacity:1;fill-rule:evenodd;stroke:#4d4d4d;stroke-width:3.78979039;stroke-linejoin:round;stroke-miterlimit:4;display:inline" />
    <path
       d="m 0.0041,94.11414 21.392998,-14.037719 127.469202,0 21.0037,14.074459 c 0.4166,3.17629 -0.9856,4.0154 -2.1634,4.37619 l -165.7368,0 C -0.756,97.38852 0.3638,96.31803 0.0041,94.11414 z"
       id="path6174"
       style="fill:#e5e5e5;fill-opacity:1;fill-rule:evenodd;stroke:none;display:inline" />
    <path
       d="M 0.6546,94.11566 0,94.51757 c 0.3597,2.20392 -0.7506,2.87392 1.9752,4.01251 l 165.7331,0 c 1.1777,-0.36076 2.5755,-0.83618 2.1589,-4.01251 l -0.6431,-0.40191 z"
       id="path6176"
       style="opacity:0.1017699;fill:#777777;fill-opacity:1;fill-rule:evenodd;stroke:none;display:inline" />
    <path
       d="m 0.2986,97.07162 c 0.2408,0.56504 0.7194,1.05861 1.6766,1.45846 l 165.7331,0 c 0.5643,-0.17289 1.1776,-0.65838 1.6192,-1.45846 l -169.0289,0 z"
       id="path6178"
       style="opacity:0.05309735;fill:#1a1a1a;fill-opacity:1;fill-rule:evenodd;stroke:none;display:inline" />
    <path
       d="M 13.9059,90.47643 23.627698,82.837731 147.2353,82.490501 159.0405,90.8236 z"
       id="path6180"
       style="fill:#b3b3b3;stroke:none;display:inline" />
    <path
       d="M 0.2986,100 C 0.5394,99.43496 1.018,98.94136 1.9752,98.54154 l 165.7331,0 c 0.5643,0.17286 1.1776,0.6584 1.6192,1.45846 L 0.2986,100 z"
       id="path6182"
       style="opacity:0.37610623;fill:#1a1a1a;fill-opacity:1;fill-rule:evenodd;stroke:none;display:inline" />
    <path
       d="m 70.785698,94.11586 c 0.3908,0.49384 -0.069,0.98764 2.1245,1.48138 l 32.165802,0 c 1.0823,-0.23093 2.0412,-0.92118 2.2164,-1.48138 z"
       id="path6184"
       style="fill:#9c9c9c;fill-opacity:1;stroke:none;display:inline" />
  </g>
  <g
     id="layer12"
     style="display:inline">
    <path
       d="m 0.0041,94.11414 21.392998,-14.037719 127.469202,0 21.0037,14.074459 c 0.4166,3.17629 -0.9856,4.0154 -2.1634,4.37619 l -165.7368,0 C -0.756,97.38852 0.3638,96.31803 0.0041,94.11414 z"
       id="path6108"
       style="fill:#e5e5e5;fill-opacity:1;fill-rule:evenodd;stroke:none;display:inline" />
    <path
       d="M 0.6546,94.11566 0,94.51757 c 0.3597,2.20392 -0.7506,2.87392 1.9752,4.01251 l 165.7331,0 c 1.1777,-0.36076 2.5755,-0.83618 2.1589,-4.01251 l -0.6431,-0.40191 z"
       id="path6110"
       style="opacity:0.1017699;fill:#777777;fill-opacity:1;fill-rule:evenodd;stroke:none;display:inline" />
    <path
       d="m 0.2986,97.07162 c 0.2408,0.56504 0.7194,1.05861 1.6766,1.45846 l 165.7331,0 c 0.5643,-0.17289 1.1776,-0.65838 1.6192,-1.45846 l -169.0289,0 z"
       id="path6112"
       style="opacity:0.05309735;fill:#1a1a1a;fill-opacity:1;fill-rule:evenodd;stroke:none;display:inline" />
    <path
       d="M 13.9059,90.47643 23.627698,82.837731 147.2353,82.490501 159.0405,90.8236 z"
       id="path6114"
       style="fill:#b3b3b3;stroke:none;display:inline" />
    <path
       d="M 0.2986,100 C 0.5394,99.43496 1.018,98.94136 1.9752,98.54154 l 165.7331,0 c 0.5643,0.17286 1.1776,0.6584 1.6192,1.45846 L 0.2986,100 z"
       id="path6116"
       style="opacity:0.37610623;fill:#1a1a1a;fill-opacity:1;fill-rule:evenodd;stroke:none;display:inline" />
    <path
       d="m 70.785698,94.11586 c 0.3908,0.49384 -0.069,0.98764 2.1245,1.48138 l 32.165802,0 c 1.0823,-0.23093 2.0412,-0.92118 2.2164,-1.48138 z"
       id="path6118"
       style="fill:#9c9c9c;fill-opacity:1;stroke:none;display:inline" />
    <path
       d="m 25.548798,78.03755 119.255602,0 c 1.254,0 22.491,0.43969 21.7725,-0.16597 l -19.366,-2.322659 c -1.0194,-0.85916 -1.0733,-0.53342 -2.4065,-0.53342 l -119.255602,0 c -1.3332,0 -1.3675,-0.30193 -2.4064,0.53342 L 3.2985,77.50391 c -1.0389,0.83537 20.917098,0.53344 22.250298,0.53344 z"
       id="path6120"
       style="fill:#ececec;fill-opacity:1;fill-rule:evenodd;stroke:#ececec;stroke-width:3.78979039;stroke-linejoin:round;stroke-miterlimit:4;display:inline" />
  </g>
  <g
     id="layer11"
     style="display:inline">
    <path
       d="m 0.0041,94.11414 21.393,-14.037719 127.4692,0 21.0037,14.074459 c 0.4166,3.17629 -0.9856,4.0154 -2.1634,4.37619 l -165.7368,0 C -0.756,97.38852 0.3638,96.31803 0.0041,94.11414 z"
       id="path6043"
       style="fill:#e5e5e5;fill-opacity:1;fill-rule:evenodd;stroke:none;display:inline" />
    <path
       d="M 0.6546,94.11566 0,94.51757 c 0.3597,2.20392 -0.7506,2.87392 1.9752,4.01251 l 165.7331,0 c 1.1777,-0.36076 2.5755,-0.83618 2.1589,-4.01251 l -0.6431,-0.40191 z"
       id="path6045"
       style="opacity:0.1017699;fill:#777777;fill-opacity:1;fill-rule:evenodd;stroke:none;display:inline" />
    <path
       d="m 0.2986,97.07162 c 0.2408,0.56504 0.7194,1.05861 1.6766,1.45846 l 165.7331,0 c 0.5643,-0.17289 1.1776,-0.65838 1.6192,-1.45846 l -169.0289,0 z"
       id="path6047"
       style="opacity:0.05309735;fill:#1a1a1a;fill-opacity:1;fill-rule:evenodd;stroke:none;display:inline" />
    <path
       d="m 13.9059,90.47643 9.7218,-7.638699 123.6076,-0.34723 11.8052,8.333099 z"
       id="path6049"
       style="fill:#b3b3b3;stroke:none;display:inline" />
    <path
       d="M 0.2986,100 C 0.5394,99.43496 1.018,98.94136 1.9752,98.54154 l 165.7331,0 c 0.5643,0.17286 1.1776,0.6584 1.6192,1.45846 L 0.2986,100 z"
       id="path6051"
       style="opacity:0.37610623;fill:#1a1a1a;fill-opacity:1;fill-rule:evenodd;stroke:none;display:inline" />
    <path
       d="m 70.7857,94.11586 c 0.3908,0.49384 -0.069,0.98764 2.1245,1.48138 l 32.1658,0 c 1.0823,-0.23093 2.0412,-0.92118 2.2164,-1.48138 z"
       id="path6053"
       style="fill:#9c9c9c;fill-opacity:1;stroke:none;display:inline" />
    <path
       d="m 25.5488,88.03755 119.2556,0 c 1.254,0 22.491,0.43969 21.7725,-0.16597 l -19.366,-12.322659 c -1.0194,-0.85916 -1.0733,-0.53342 -2.4065,-0.53342 l -119.2556,0 c -1.3332,0 -1.3675,-0.30193 -2.4064,0.53342 L 3.2985,87.50391 c -1.0389,0.83537 20.9171,0.53344 22.2503,0.53344 z"
       id="path6055"
       style="fill:#ececec;fill-opacity:1;fill-rule:evenodd;stroke:#ececec;stroke-width:3.78979039;stroke-linejoin:round;stroke-miterlimit:4;display:inline" />
  </g>
  <g
     transform="translate(1704.1633,-186.15142)"
     id="layer6"
     style="display:inline">
    <path
       d="m -1704.1592,280.26556 21.393,-14.03772 127.4692,0 21.0037,14.07446 c 0.4166,3.17629 -0.9856,4.0154 -2.1634,4.37619 l -165.7368,0 c -2.7258,-1.13855 -1.606,-2.20904 -1.9657,-4.41293 z"
       id="path3806"
       style="fill:#e5e5e5;fill-opacity:1;fill-rule:evenodd;stroke:none" />
    <path
       d="m -1703.5087,280.26708 -0.6546,0.40191 c 0.3597,2.20392 -0.7506,2.87392 1.9752,4.01251 l 165.7331,0 c 1.1777,-0.36076 2.5755,-0.83618 2.1589,-4.01251 l -0.6431,-0.40191 z"
       id="path3808"
       style="opacity:0.1017699;fill:#777777;fill-opacity:1;fill-rule:evenodd;stroke:none" />
    <path
       d="m -1703.8647,283.22304 c 0.2408,0.56504 0.7194,1.05861 1.6766,1.45846 l 165.7331,0 c 0.5643,-0.17289 1.1776,-0.65838 1.6192,-1.45846 l -169.0289,0 z"
       id="path3810"
       style="opacity:0.05309735;fill:#1a1a1a;fill-opacity:1;fill-rule:evenodd;stroke:none" />
    <path
       d="m -1690.2574,276.62785 9.7218,-7.6387 123.6076,-0.34723 11.8052,8.3331 z"
       id="path3812"
       style="fill:#b3b3b3;stroke:none" />
    <path
       d="m -1703.8647,286.15142 c 0.2408,-0.56504 0.7194,-1.05864 1.6766,-1.45846 l 165.7331,0 c 0.5643,0.17286 1.1776,0.6584 1.6192,1.45846 l -169.0289,0 z"
       id="path3814"
       style="opacity:0.37610623;fill:#1a1a1a;fill-opacity:1;fill-rule:evenodd;stroke:none" />
    <path
       d="m -1633.3776,280.26728 c 0.3908,0.49384 -0.069,0.98764 2.1245,1.48138 l 32.1658,0 c 1.0823,-0.23093 2.0412,-0.92118 2.2164,-1.48138 z"
       id="path3816"
       style="fill:#9c9c9c;fill-opacity:1;stroke:none" />
    <path
       d="m -1678.6145,278.18897 119.2556,0 c 1.254,0 22.491,0.43969 21.7725,-0.16597 l -19.366,-16.32266 c -1.0194,-0.85916 -1.0733,-0.53342 -2.4065,-0.53342 l -119.2556,0 c -1.3332,0 -1.3675,-0.30193 -2.4064,0.53342 l -19.8439,15.95499 c -1.0389,0.83537 20.9171,0.53344 22.2503,0.53344 z"
       id="path3804"
       style="fill:#ececec;fill-opacity:1;fill-rule:evenodd;stroke:#ececec;stroke-width:3.78979039;stroke-linejoin:round;stroke-miterlimit:4" />
  </g>
</svg>
